<svg xmlns="http://www.w3.org/2000/svg" viewBox="0 0 32 32" role="img" aria-label="narcore">
  <defs>
    <clipPath id="lid">
      <path d="M5.5 16Q16 7 26.5 16Q16 25 5.5 16Z" />
    </clipPath>
  </defs>
  <rect x="1.5" y="1.5" width="29" height="29" rx="8" fill="#1263b8" />
  <g clip-path="url(#lid)" stroke="#141312">
    <g stroke-width="0.6" stroke-linecap="round">
    <line x1="18.70" y1="16.00" x2="22.60" y2="16.00" />
    <line x1="18.61" y1="16.70" x2="22.38" y2="17.71" />
    <line x1="18.34" y1="17.35" x2="21.72" y2="19.30" />
    <line x1="17.91" y1="17.91" x2="20.67" y2="20.67" />
    <line x1="17.35" y1="18.34" x2="19.30" y2="21.72" />
    <line x1="16.70" y1="18.61" x2="17.71" y2="22.38" />
    <line x1="16.00" y1="18.70" x2="16.00" y2="22.60" />
    <line x1="15.30" y1="18.61" x2="14.29" y2="22.38" />
    <line x1="14.65" y1="18.34" x2="12.70" y2="21.72" />
    <line x1="14.09" y1="17.91" x2="11.33" y2="20.67" />
    <line x1="13.66" y1="17.35" x2="10.28" y2="19.30" />
    <line x1="13.39" y1="16.70" x2="9.62" y2="17.71" />
    <line x1="13.30" y1="16.00" x2="9.40" y2="16.00" />
    <line x1="13.39" y1="15.30" x2="9.62" y2="14.29" />
    <line x1="13.66" y1="14.65" x2="10.28" y2="12.70" />
    <line x1="14.09" y1="14.09" x2="11.33" y2="11.33" />
    <line x1="14.65" y1="13.66" x2="12.70" y2="10.28" />
    <line x1="15.30" y1="13.39" x2="14.29" y2="9.62" />
    <line x1="16.00" y1="13.30" x2="16.00" y2="9.40" />
    <line x1="16.70" y1="13.39" x2="17.71" y2="9.62" />
    <line x1="17.35" y1="13.66" x2="19.30" y2="10.28" />
    <line x1="17.91" y1="14.09" x2="20.67" y2="11.33" />
    <line x1="18.34" y1="14.65" x2="21.72" y2="12.70" />
    <line x1="18.61" y1="15.30" x2="22.38" y2="14.29" />
    </g>
    <circle cx="16" cy="16" r="6.6" fill="none" stroke-width="1" />
    <circle cx="16" cy="16" r="2.6" stroke-width="0" fill="#141312" />
  </g>
  <circle cx="14.5" cy="14.5" r="1" fill="#1263b8" />
  <path d="M5.5 16Q16 7 26.5 16Q16 25 5.5 16Z" fill="none" stroke="#141312" stroke-width="1.6" stroke-linejoin="round" />
</svg>
